HIERARCHY
ROOT hip
{
  OFFSET 0 0 0
  CHANNELS 6 Xposition Yposition Zposition Zrotation Yrotation Xrotation
  JOINT abdomen
  {
    OFFSET 0 20.6881 -0.73152
    CHANNELS 3 Zrotation Xrotation Yrotation
    JOINT chest
    {
      OFFSET 0 11.7043 -0.48768
      CHANNELS 3 Zrotation Xrotation Yrotation
      JOINT neck
      {
        OFFSET 0 22.1894 -2.19456
        CHANNELS 3 Zrotation Xrotation Yrotation
        JOINT head
        {
          OFFSET -0.24384 7.07133 1.2192
          CHANNELS 3 Zrotation Xrotation Yrotation
          JOINT leftEye
          {
            OFFSET 4.14528 8.04674 8.04672
            CHANNELS 3 Zrotation Xrotation Yrotation
            End Site
            {
              OFFSET 1 0 0
            }
          }
          JOINT rightEye
          {
            OFFSET -3.6576 8.04674 8.04672
            CHANNELS 3 Zrotation Xrotation Yrotation
            End Site
            {
              OFFSET 1 0 0
            }
          }
        }
      }
      JOINT rCollar
      {
        OFFSET -2.68224 19.2634 -4.8768
        CHANNELS 3 Zrotation Xrotation Yrotation
        JOINT rShldr
        {
          OFFSET -8.77824 -1.95073 1.46304
          CHANNELS 3 Zrotation Xrotation Yrotation
          JOINT rForeArm
          {
            OFFSET -28.1742 -1.7115 0.48768
            CHANNELS 3 Zrotation Xrotation Yrotation
            JOINT rHand
            {
              OFFSET -22.5879 0.773209 7.07136
              CHANNELS 3 Zrotation Xrotation Yrotation
              JOINT rThumb1
              {
                OFFSET -1.2192 -0.487915 3.41376
                CHANNELS 3 Zrotation Xrotation Yrotation
                JOINT rThumb2
                {
                  OFFSET -3.37035 -0.52449 3.41376
                  CHANNELS 3 Zrotation Xrotation Yrotation
                  End Site
                  {
                    OFFSET -1.78271 -1.18214 1.43049
                  }
                }
              }
              JOINT rIndex1
              {
                OFFSET -7.75947 0.938293 5.60832
                CHANNELS 3 Zrotation Xrotation Yrotation
                JOINT rIndex2
                {
                  OFFSET -2.54057 -0.884171 1.56538
                  CHANNELS 3 Zrotation Xrotation Yrotation
                  End Site
                  {
                    OFFSET -1.62519 -0.234802 1.16502
                  }
                }
              }
              JOINT rMid1
              {
                OFFSET -8.24714 1.18213 3.41376
                CHANNELS 3 Zrotation Xrotation Yrotation
                JOINT rMid2
                {
                  OFFSET -3.10165 -0.590103 1.0647
                  CHANNELS 3 Zrotation Xrotation Yrotation
                  End Site
                  {
                    OFFSET -2.48547 -0.328903 0.83742
                  }
                }
              }
              JOINT rRing1
              {
                OFFSET -8.82822 0.546677 1.51678
                CHANNELS 3 Zrotation Xrotation Yrotation
                JOINT rRing2
                {
                  OFFSET -2.60934 -0.819778 -0.0198488
                  CHANNELS 3 Zrotation Xrotation Yrotation
                  End Site
                  {
                    OFFSET -2.33842 -0.294052 0.168128
                  }
                }
              }
              JOINT rPinky1
              {
                OFFSET -8.27202 -0.0477905 -0.4584
                CHANNELS 3 Zrotation Xrotation Yrotation
                JOINT rPinky2
                {
                  OFFSET -1.82734 -0.647385 -0.700984
                  CHANNELS 3 Zrotation Xrotation Yrotation
                  End Site
                  {
                    OFFSET -1.69225 -0.51767 -0.607171
                  }
                }
              }
            }
          }
        }
      }
      JOINT lCollar
      {
        OFFSET 2.68224 19.2634 -4.8768
        CHANNELS 3 Zrotation Xrotation Yrotation
        JOINT lShldr
        {
          OFFSET 8.77824 -1.95073 1.46304
          CHANNELS 3 Zrotation Xrotation Yrotation
          JOINT lForeArm
          {
            OFFSET 28.1742 -1.7115 0.48768
            CHANNELS 3 Zrotation Xrotation Yrotation
            JOINT lHand
            {
              OFFSET 22.5879 0.773209 7.07136
              CHANNELS 3 Zrotation Xrotation Yrotation
              JOINT lThumb1
              {
                OFFSET 1.2192 -0.487915 3.41376
                CHANNELS 3 Zrotation Xrotation Yrotation
                JOINT lThumb2
                {
                  OFFSET 3.37035 -0.52449 3.41376
                  CHANNELS 3 Zrotation Xrotation Yrotation
                  End Site
                  {
                    OFFSET 1.78271 -1.18214 1.43049
                  }
                }
              }
              JOINT lIndex1
              {
                OFFSET 7.75947 0.938293 5.60832
                CHANNELS 3 Zrotation Xrotation Yrotation
                JOINT lIndex2
                {
                  OFFSET 2.54057 -0.884171 1.56538
                  CHANNELS 3 Zrotation Xrotation Yrotation
                  End Site
                  {
                    OFFSET 1.62519 -0.234802 1.16502
                  }
                }
              }
              JOINT lMid1
              {
                OFFSET 8.24714 1.18213 3.41376
                CHANNELS 3 Zrotation Xrotation Yrotation
                JOINT lMid2
                {
                  OFFSET 3.10165 -0.590103 1.0647
                  CHANNELS 3 Zrotation Xrotation Yrotation
                  End Site
                  {
                    OFFSET 2.48547 -0.328903 0.83742
                  }
                }
              }
              JOINT lRing1
              {
                OFFSET 8.82822 0.546677 1.51678
                CHANNELS 3 Zrotation Xrotation Yrotation
                JOINT lRing2
                {
                  OFFSET 2.60934 -0.819778 -0.0198488
                  CHANNELS 3 Zrotation Xrotation Yrotation
                  End Site
                  {
                    OFFSET 2.33842 -0.294052 0.168128
                  }
                }
              }
              JOINT lPinky1
              {
                OFFSET 8.27202 -0.0477905 -0.4584
                CHANNELS 3 Zrotation Xrotation Yrotation
                JOINT lPinky2
                {
                  OFFSET 1.82734 -0.647385 -0.700984
                  CHANNELS 3 Zrotation Xrotation Yrotation
                  End Site
                  {
                    OFFSET 1.69225 -0.51767 -0.607171
                  }
                }
              }
            }
          }
        }
      }
    }
  }
  JOINT rButtock
  {
    OFFSET -8.77824 4.35084 1.2192
    CHANNELS 3 Zrotation Xrotation Yrotation
    JOINT rThigh
    {
      OFFSET 0 -1.70687 -2.19456
      CHANNELS 3 Zrotation Xrotation Yrotation
      JOINT rShin
      {
        OFFSET 0 -36.8199 0.73152
        CHANNELS 3 Zrotation Xrotation Yrotation
        JOINT rFoot
        {
          OFFSET 0.73152 -45.1104 -5.12064
          CHANNELS 3 Zrotation Xrotation Yrotation
          End Site
          {
            OFFSET -1.1221 -3.69964 12.103
          }
        }
      }
    }
  }
  JOINT lButtock
  {
    OFFSET 8.77824 4.35084 1.2192
    CHANNELS 3 Zrotation Xrotation Yrotation
    JOINT lThigh
    {
      OFFSET 0 -1.70687 -2.19456
      CHANNELS 3 Zrotation Xrotation Yrotation
      JOINT lShin
      {
        OFFSET 0 -36.8199 0.73152
        CHANNELS 3 Zrotation Xrotation Yrotation
        JOINT lFoot
        {
          OFFSET -0.73152 -45.1104 -5.12064
          CHANNELS 3 Zrotation Xrotation Yrotation
          End Site
          {
            OFFSET 1.1221 -3.69964 12.103
          }
        }
      }
    }
  }
}
MOTION
Frames:	6
Frame Time:	0.00833333
-203.726 85.1238 15.6098 0.0 0.0 0.0 0.436011 -0.0238363 0.0128214 0.121284 -0.0396009 0.0210509 4.90147e-15 -1.59028e-15 6.21202e-17 1.46355e-14 3.18055e-15 1.77043e-16 -0.0 0.0 0.0 -0.0 0.0 0.0 2.43351e-15 -6.13437e-17 1.98785e-16 5.24938e-14 -1.6027e-15 1.39149e-15 8.76392e-13 -3.19646e-13 9.54166e-15 1.00977e-11 -2.19906e-14 1.11319e-13 2.38007e-11 -7.41169e-13 2.79889e-13 4.10948e-11 -1.27858e-12 4.92191e-13 2.38072e-11 -7.37889e-13 2.70347e-13 7.73091 5.47488 0.417314 2.38e-11 -7.41268e-13 2.8943e-13 2.90554 0.965183 0.102902 2.3811e-11 -7.40572e-13 2.87045e-13 10.2786 0.731801 0.0259123 2.38023e-11 -7.41069e-13 2.95792e-13 2.22167 -0.733487 -0.20892 2.33748e-15 -6.25085e-17 -1.49089e-16 4.93148e-14 -1.57785e-15 3.97569e-16 8.90953e-13 2.0614e-13 0.0 1.00817e-11 -5.58187e-13 1.46306e-13 2.38025e-11 -7.63619e-13 2.92611e-13 4.11142e-11 -1.31675e-12 4.96962e-13 2.37985e-11 -7.62936e-13 2.98972e-13 -7.73091 5.47488 -0.417314 2.38026e-11 -7.63433e-13 2.92611e-13 -2.90554 0.965183 -0.102902 2.37952e-11 -7.62936e-13 2.90226e-13 -10.2786 0.731801 -0.0259123 2.3807e-11 -7.62538e-13 2.79889e-13 -2.22167 -0.733487 0.20892 -2.03217e-16 0.0 -3.88251e-19 0.652357 -4.71086 -0.0694889 -0.000846437 2.99763 0.00379497 -0.326718 1.72344 0.069835 2.03217e-16 0.0 3.88251e-19 0.0369479 -2.68 0.0230679 0.00577003 -0.68023 0.0503212 0.292384 3.37042 -0.096146
-194.852 83.6319 6.10147 -168.992 74.042 -158.705 2.49495 -1.00303 3.85615 -2.69853 -5.00139 0.781203 4.00804 -0.113917 1.67223 -1.35756 7.29303 3.67827 -0.0 0.0 0.0 -0.0 0.0 0.0 -1.65046e-15 3.74058e-14 8.53609e-14 22.6798 8.01637 -6.25731 -4.44607 -2.06725 6.89249 0.0158502 -2.79352 -0.390919 -3.27737e-10 8.98395e-12 -4.05821e-10 -5.65364e-10 1.57623e-11 -7.04925e-10 -3.27733e-10 8.9883e-12 -4.0583e-10 7.73091 5.47488 0.417314 -3.27738e-10 8.9857e-12 -4.05818e-10 2.90554 0.965183 0.102902 -3.27728e-10 8.98756e-12 -4.05817e-10 10.2786 0.731801 0.0259123 -3.27735e-10 8.98684e-12 -4.05809e-10 2.22167 -0.733487 -0.20892 -1.7371e-15 3.73993e-14 8.50697e-14 -18.0414 12.7062 3.04628 5.37151 -2.72437 -8.05884 -0.000635585 0.568277 -0.0798525 -3.24487e-10 4.04567e-10 2.41369e-10 -5.59868e-10 7.02688e-10 4.18833e-10 -3.24492e-10 4.04566e-10 2.41376e-10 -7.73091 5.47488 -0.417314 -3.24487e-10 4.04566e-10 2.4137e-10 -2.90554 0.965183 -0.102902 -3.24494e-10 4.04566e-10 2.41368e-10 -10.2786 0.731801 -0.0259123 -3.24481e-10 4.04568e-10 2.41359e-10 -2.22167 -0.733487 0.20892 -2.03217e-16 0.0 -3.88251e-19 5.62787 -5.15344 8.40211 -0.0494681 3.89957 -0.326914 -0.711033 -11.936 -7.83307 2.03217e-16 0.0 3.88251e-19 -0.689812 -2.71858 -8.94994 0.00387177 -1.1857 0.0382888 0.085288 -3.84277 -0.0306687
-194.873 83.6217 6.11704 -169.202 74.2672 -158.82 4.80448 -2.02805 7.92176 -5.50135 -10.237 1.60965 8.24551 -0.230558 3.44037 -3.85506 14.9069 7.77695 -0.0 0.0 0.0 -0.0 0.0 0.0 -5.27765e-15 8.51955e-14 1.73253e-13 48.5861 16.1735 -13.279 -8.60868 -4.15224 14.2061 -0.00904874 -5.75075 -0.807913 -7.45342e-10 1.52273e-11 -8.89731e-10 -1.28562e-09 2.68377e-11 -1.54546e-09 -7.45341e-10 1.52329e-11 -8.89739e-10 7.73091 5.47488 0.417314 -7.45344e-10 1.52312e-11 -8.89735e-10 2.90554 0.965183 0.102902 -7.45336e-10 1.52344e-11 -8.8973e-10 10.2786 0.731801 0.0259123 -7.45341e-10 1.52334e-11 -8.89723e-10 2.22167 -0.733487 -0.20892 -5.3545e-15 8.51831e-14 1.73023e-13 -38.7554 26.0026 6.80104 10.2235 -5.42341 -16.6336 0.000436601 1.18067 -0.165932 -7.05111e-10 8.44275e-10 4.95745e-10 -1.21661e-09 1.46646e-09 8.60318e-10 -7.05118e-10 8.44271e-10 4.95753e-10 -7.73091 5.47488 -0.417314 -7.05112e-10 8.44271e-10 4.95746e-10 -2.90554 0.965183 -0.102902 -7.05118e-10 8.44272e-10 4.95746e-10 -10.2786 0.731801 -0.0259123 -7.05104e-10 8.44275e-10 4.95738e-10 -2.22167 -0.733487 0.20892 -2.03217e-16 0.0 -3.88251e-19 11.0272 -5.47257 17.3596 -0.0895602 4.85389 -0.677689 -5.54463 -25.5354 -17.5797 2.03217e-16 0.0 3.88251e-19 -1.47115 -2.67775 -18.4447 0.00163141 -1.71929 0.0254469 -0.115734 -11.472 0.0351797
-194.89 83.615 6.10111 -169.693 74.4127 -159.161 7.00439 -2.90818 11.5561 -7.93151 -14.9141 2.37255 12.0441 -0.340586 5.01676 -7.04005 21.5049 11.7757 -0.0 0.0 0.0 -0.0 0.0 0.0 -9.81842e-15 1.1234e-13 2.55685e-13 73.5605 22.8556 -20.2377 -11.8756 -5.84352 20.7769 -0.0678494 -8.37898 -1.184 -1.03081e-09 2.84342e-11 -1.21802e-09 -1.77828e-09 4.98441e-11 -2.11576e-09 -1.03081e-09 2.84407e-11 -1.21803e-09 7.73091 5.47488 0.417314 -1.03081e-09 2.84396e-11 -1.21803e-09 2.90554 0.965183 0.102902 -1.03081e-09 2.84438e-11 -1.21803e-09 10.2786 0.731801 0.0259123 -1.03081e-09 2.84427e-11 -1.21802e-09 2.22167 -0.733487 -0.20892 -9.88628e-15 1.12323e-13 2.55507e-13 -59.0578 37.6286 11.2838 13.8747 -7.52772 -24.3725 0.00284703 1.70482 -0.239652 -1.02107e-09 1.21523e-09 7.23522e-10 -1.76183e-09 2.1107e-09 1.25551e-09 -1.02107e-09 1.21522e-09 7.23531e-10 -7.73091 5.47488 -0.417314 -1.02107e-09 1.21522e-09 7.23524e-10 -2.90554 0.965183 -0.102902 -1.02107e-09 1.21523e-09 7.23524e-10 -10.2786 0.731801 -0.0259123 -1.02106e-09 1.21523e-09 7.23518e-10 -2.22167 -0.733487 0.20892 -2.03217e-16 0.0 -3.88251e-19 15.9419 -5.61088 25.3723 -0.115328 5.7028 -0.990957 -14.5849 -35.872 -28.994 2.03217e-16 0.0 3.88251e-19 -2.16687 -2.5833 -26.895 -0.000561917 -2.19663 0.0142168 -0.278368 -18.2691 0.105477
-194.878 83.6148 6.08453 -170.027 74.4953 -159.402 8.65223 -3.47716 14.0994 -9.72487 -18.2058 2.90354 14.7322 -0.43511 6.11368 -9.77727 25.9235 14.813 -0.0 0.0 0.0 -0.0 0.0 0.0 -1.66431e-14 8.78718e-14 3.24466e-13 92.1909 26.9877 -25.626 -13.9215 -6.89119 25.3961 -0.128973 -10.1862 -1.44701 -9.8594e-10 5.90502e-11 -1.15728e-09 -1.70195e-09 1.02678e-10 -2.0105e-09 -9.85942e-10 5.90561e-11 -1.15728e-09 7.73091 5.47488 0.417314 -9.85942e-10 5.90554e-11 -1.15729e-09 2.90554 0.965183 0.102902 -9.85936e-10 5.90599e-11 -1.15728e-09 10.2786 0.731801 0.0259123 -9.8594e-10 5.90589e-11 -1.15727e-09 2.22167 -0.733487 -0.20892 -1.6704e-14 8.78535e-14 3.24317e-13 -74.6539 45.5228 15.6389 16.0769 -8.75887 -29.8351 0.00494943 2.00835 -0.282373 -1.17535e-09 1.4143e-09 8.84802e-10 -2.02825e-09 2.45612e-09 1.53495e-09 -1.17536e-09 1.41429e-09 8.84811e-10 -7.73091 5.47488 -0.417314 -1.17535e-09 1.41429e-09 8.84805e-10 -2.90554 0.965183 -0.102902 -1.17536e-09 1.41429e-09 8.84805e-10 -10.2786 0.731801 -0.0259123 -1.17534e-09 1.4143e-09 8.84799e-10 -2.22167 -0.733487 0.20892 -2.03217e-16 0.0 -3.88251e-19 19.4153 -5.6246 31.0072 -0.127571 6.28875 -1.20835 -24.0162 -41.2607 -39.163 2.03217e-16 0.0 3.88251e-19 -2.65098 -2.50512 -32.7358 -0.0021792 -2.53332 0.00702428 -0.375712 -22.9858 0.181794
-194.837 83.6188 6.07833 -170.172 74.5938 -159.505 9.42432 -3.6368 15.0985 -10.8107 -19.5807 3.04953 15.8707 -0.50373 6.54096 -10.7832 27.557 15.974 -0.0 0.0 0.0 -0.0 0.0 0.0 -3.08277e-14 -3.37455e-14 3.93219e-13 100.043 28.4098 -27.8779 -14.6809 -7.27196 27.2292 -0.155756 -10.8344 -1.54249 -2.5436e-10 1.50006e-10 -4.06673e-10 -4.4254e-10 2.59292e-10 -7.0662e-10 -2.5436e-10 1.50009e-10 -4.06679e-10 7.73091 5.47488 0.417314 -2.5436e-10 1.50008e-10 -4.06684e-10 2.90554 0.965183 0.102902 -2.54355e-10 1.50012e-10 -4.06676e-10 10.2786 0.731801 0.0259123 -2.54362e-10 1.50012e-10 -4.06668e-10 2.22167 -0.733487 -0.20892 -3.08844e-14 -3.37599e-14 3.93064e-13 -81.0333 48.6295 17.8761 16.8814 -9.18974 -32.0179 0.0050671 1.99146 -0.279999 -1.11462e-09 1.36075e-09 1.01697e-09 -1.92395e-09 2.36234e-09 1.763e-09 -1.11463e-09 1.36074e-09 1.01698e-09 -7.73091 5.47488 -0.417314 -1.11462e-09 1.36075e-09 1.01697e-09 -2.90554 0.965183 -0.102902 -1.11463e-09 1.36075e-09 1.01697e-09 -10.2786 0.731801 -0.0259123 -1.11462e-09 1.36075e-09 1.01697e-09 -2.22167 -0.733487 0.20892 -2.03217e-16 0.0 -3.88251e-19 20.7997 -5.64231 33.3191 -0.13085 6.50759 -1.28967 -28.4079 -42.5502 -43.8014 2.03217e-16 0.0 3.88251e-19 -2.84999 -2.52909 -34.9087 -0.00271638 -2.66863 0.00549823 -0.399681 -24.7732 0.259195
